<svg id="Layer_1" data-name="Layer 1" xmlns="http://www.w3.org/2000/svg" xmlns:xlink="http://www.w3.org/1999/xlink" viewBox="0 0 500 500"><defs><style>.cls-1,.cls-2,.cls-3{stroke:#fff;}.cls-1,.cls-2,.cls-3,.cls-4{stroke-miterlimit:10;}.cls-1{fill:url(#linear-gradient);}.cls-2,.cls-3{stroke-width:3px;}.cls-2{fill:url(#linear-gradient-2);}.cls-3{fill:url(#linear-gradient-3);}.cls-4{fill:none;stroke-width:4px;stroke:url(#linear-gradient-4);}</style><linearGradient id="linear-gradient" x1="-500" y1="663" x2="0" y2="663" gradientUnits="userSpaceOnUse"><stop offset="0.08" stop-color="#00451b"/><stop offset="0.18" stop-color="#095622"/><stop offset="0.49" stop-color="#238938"/><stop offset="0.73" stop-color="#33a945"/><stop offset="0.86" stop-color="#39b54a"/></linearGradient><linearGradient id="linear-gradient-2" x1="323.3" y1="300.78" x2="353.94" y2="300.78" xlink:href="#linear-gradient"/><linearGradient id="linear-gradient-3" x1="49.25" y1="117.25" x2="483.13" y2="358.81" gradientUnits="userSpaceOnUse"><stop offset="0.08" stop-color="#00451b"/><stop offset="0.18" stop-color="#095622"/><stop offset="0.49" stop-color="#238938"/><stop offset="0.73" stop-color="#33a945"/><stop offset="0.86" stop-color="#39b54a"/><stop offset="0.94" stop-color="red"/></linearGradient><linearGradient id="linear-gradient-4" x1="52.5" y1="235" x2="485.5" y2="235" xlink:href="#linear-gradient"/></defs><title>Artboard 1 copy 9</title><rect class="cls-1" x="-500" y="413" width="500" height="500"/><circle class="cls-2" cx="338.62" cy="300.78" r="15.32"/><path class="cls-3" d="M400.28,303.82h0A25.56,25.56,0,0,1,368.12,298l-20.4-24.25a13.13,13.13,0,0,0-20.39.39l-38.2,49a21.37,21.37,0,0,1-16.85,8.23H231.53a21.38,21.38,0,0,1-16.36-7.62L130.74,223.27a25.56,25.56,0,0,1,7-38.69h0a25.56,25.56,0,0,1,32.16,5.81l85.6,101.88a13.12,13.12,0,0,0,20.39-.37l35.34-45.32a13.11,13.11,0,0,0-.3-16.52l-41.61-49.45a25.56,25.56,0,0,1,7-38.7h0a25.58,25.58,0,0,1,32.16,5.78l98.81,117.43A25.56,25.56,0,0,1,400.28,303.82Z"/><path class="cls-4" d="M379,390h0a44,44,0,0,0-59,28.1h0c-11.83,39.68-66.94,42.54-82.81,4.29h0a44,44,0,0,0-61.58-21.84h0C139.19,420.21,98.21,383.27,114,345h0a44,44,0,0,0-28.1-59h0c-39.68-11.83-42.54-66.94-4.29-82.81h0a44,44,0,0,0,21.84-61.58h0C83.79,105.19,120.73,64.21,159,80h0a44,44,0,0,0,59-28.1h0c11.83-39.68,66.94-42.54,82.81-4.29h0a44,44,0,0,0,61.58,21.84h0C398.81,49.79,439.79,86.73,424,125h0a44,44,0,0,0,28.1,59h0c39.68,11.83,42.54,66.94,4.29,82.81h0a44,44,0,0,0-21.84,61.58h0C454.21,364.81,417.27,405.79,379,390Z"/></svg>